<?xml version="1.0" encoding="utf-8"?>
<svg xmlns="http://www.w3.org/2000/svg" viewBox="0 0 24 24" width="96" height="96">
  <path d="M11.984375 0.98632812 A 1.0001 1.0001 0 0 0 11 2L11 4L9 4 A 1.0001 1.0001 0 1 0 9 6L11 6L11 8 A 1.0001 1.0001 0 1 0 13 8L13 6L15 6 A 1.0001 1.0001 0 1 0 15 4L13 4L13 2 A 1.0001 1.0001 0 0 0 11.984375 0.98632812 z M 3.0722656 2.0039062L2 2.0136719 A 1.0001 1.0001 0 1 0 2.0175781 4.0136719L3.0839844 4.0039062L3.0859375 4.0039062L6.3476562 11.833984 A 1.0001 1.0001 0 0 0 6.3359375 11.978516L5.1816406 13.822266C4.3432895 15.161013 5.3626785 17 6.9414062 17L18 17 A 1.0001 1.0001 0 1 0 18 15L6.9414062 15C6.8301342 15 6.8173041 14.978071 6.8769531 14.882812L8.0527344 13L15.521484 13C16.246284 13 16.917475 12.604805 17.269531 11.970703L21.382812 4.5664062 A 1.0001 1.0001 0 0 0 20.507812 3.0683594 A 1.0001 1.0001 0 0 0 19.634766 3.5957031L15.521484 11L8.1660156 11L4.9316406 3.2324219C4.6203684 2.4861666 3.8821872 1.9999163 3.0742188 2.0039062L3.0722656 2.0039062 z M 7 18 A 2 2 0 0 0 5 20 A 2 2 0 0 0 7 22 A 2 2 0 0 0 9 20 A 2 2 0 0 0 7 18 z M 17 18 A 2 2 0 0 0 15 20 A 2 2 0 0 0 17 22 A 2 2 0 0 0 19 20 A 2 2 0 0 0 17 18 z" />
</svg>