<?xml version="1.0" encoding="utf-8"?>
<svg xmlns="http://www.w3.org/2000/svg" viewBox="0 0 24 24" width="96" height="96">
  <path d="M4 3C3.448 3 3 3.448 3 4C3 4.552 3.448 5 4 5L10 14.537109L10 20C10 20.552 10.448 21 11 21L13 21C13.552 21 14 20.552 14 20L14 14.537109L20 5C20.552 5 21 4.552 21 4C21 3.448 20.552 3 20 3L4 3 z M 22.580078 15.003906C22.218078 15.003906 21.856078 15.143422 21.580078 15.419922L20.853516 16.146484L22.853516 18.146484L23.580078 17.419922C24.132078 16.867922 24.132078 15.971922 23.580078 15.419922C23.304078 15.143422 22.942078 15.003906 22.580078 15.003906 z M 20.146484 16.853516L15.146484 21.853516C15.053484 21.947516 15 22.074031 15 22.207031L15 23.5C15 23.776 15.224 24 15.5 24L16.792969 24C16.924969 24 17.052484 23.946516 17.146484 23.853516L22.146484 18.853516L20.146484 16.853516 z" />
</svg>