<?xml version="1.0" encoding="utf-8"?>
<svg xmlns="http://www.w3.org/2000/svg" viewBox="0 0 24 24" width="96" height="96">
  <path d="M4.5878906 3C4.0628906 3 3.6268437 3.4056875 3.5898438 3.9296875L3.0136719 12.013672C2.8366286 14.485856 4.6185807 16.611451 7 16.947266L7 20L5 20C4.448 20 4 20.448 4 21C4 21.552 4.448 22 5 22L11 22C11.552 22 12 21.552 12 21C12 20.448 11.552 20 11 20L9 20L9 16.947266C11.381426 16.611451 13.164407 14.485856 12.988281 12.013672L12.410156 3.9296875C12.372156 3.4056875 11.937109 3 11.412109 3L4.5878906 3 z M 17 3C16.448 3 16 3.448 16 4L16 10L14.849609 10L14.982422 11.869141C15.029422 12.523141 14.973078 13.176641 14.830078 13.806641C15.202078 13.921641 15.591 14 16 14L16 21C16 21.552 16.448 22 17 22C17.552 22 18 21.552 18 21L18 14C20.209 14 22 12.209 22 10L22 4C22 3.448 21.552 3 21 3C20.448 3 20 3.448 20 4L20 10L18 10L18 4C18 3.448 17.552 3 17 3 z" />
</svg>