<?xml version="1.0" encoding="utf-8"?>
<svg xmlns="http://www.w3.org/2000/svg" viewBox="0 0 24 24" width="96" height="96">
  <path d="M1 5C0.448 5 0 5.448 0 6C0 6.552 0.448 7 1 7L6 7C6.552 7 7 7.448 7 8C7 8.552 6.552 9 6 9L2 9C1.448 9 1 9.448 1 10C1 10.552 1.448 11 2 11L4 11C4.552 11 5 11.448 5 12C5 12.552 4.552 13 4 13L2 13C1.448 13 1 13.448 1 14L1 17C1 17.552 1.448 18 2 18L3 18C3 19.657 4.343 21 6 21C7.657 21 9 19.657 9 18L14 18L15 18C15 19.657 16.343 21 18 21C19.657 21 21 19.657 21 18L22 18C22.138 18 22.269047 17.9725 22.388672 17.921875C22.747547 17.77 23 17.414 23 17L23 13L20.275391 7.5527344C20.106391 7.2137344 19.761813 7 19.382812 7L16 7C16 5.895 15.105 5 14 5L1 5 z M 16 8.75L18.917969 8.75L21.042969 13L16 13L16 8.75 z M 6 16.75C6.689 16.75 7.25 17.311 7.25 18C7.25 18.689 6.689 19.25 6 19.25C5.311 19.25 4.75 18.689 4.75 18C4.75 17.311 5.311 16.75 6 16.75 z M 18 16.75C18.689 16.75 19.25 17.311 19.25 18C19.25 18.689 18.689 19.25 18 19.25C17.311 19.25 16.75 18.689 16.75 18C16.75 17.311 17.311 16.75 18 16.75 z" />
</svg>