<?xml version="1.0" encoding="utf-8"?>
<svg xmlns="http://www.w3.org/2000/svg" viewBox="0 0 24 24" width="96" height="96">
  <path d="M17.658203 1C16.763359 1.0017344 15.6485 1.0959844 14.75 1.4589844C12.937 2.1919844 12 4.9511719 12 4.9511719C12 4.9511719 14.690906 5.2222344 16.503906 4.4902344C17.713906 4.0012344 18.532359 2.6506406 18.943359 1.8066406C19.116359 1.4526406 18.867891 1.0454375 18.462891 1.0234375C18.229391 1.0101875 17.956484 0.99942187 17.658203 1 z M 12 5C9.458 5 8 6.6953437 8 9.6523438C8 10.297344 7.4732813 10.922531 6.8632812 11.644531C6.0332813 12.628531 5 13.852578 5 15.642578C5 19.147578 8.14 22 12 22C15.86 22 19 19.147578 19 15.642578C19 13.878578 17.972484 12.653922 17.146484 11.669922C16.531484 10.936922 16 10.302344 16 9.6523438C16 6.6953437 14.542 5 12 5 z" />
</svg>