<?xml version="1.0" encoding="utf-8"?>
<svg xmlns="http://www.w3.org/2000/svg" viewBox="0 0 24 24" width="96" height="96">
  <path d="M18.5 5C17.672 5 17 5.672 17 6.5C17 6.6761216 17.035954 6.8429605 17.091797 7L15 7 A 1.0001 1.0001 0 1 0 15 9L17.306641 9L17.568359 9.6972656L17.494141 9.65625L13.412109 17L12 17 A 1.0001 1.0001 0 0 0 11.980469 16.804688L11.21875 13L12 13 A 1.0001 1.0001 0 1 0 12 11L7.1191406 11 A 1.0001 1.0001 0 0 0 7.0039062 10.994141 A 1.0001 1.0001 0 0 0 7 10.994141L7 6L0 6L0 7L0 11.832031 A 1.0001 1.0001 0 0 0 0 12.158203L0 13L4.3007812 13C4.1811668 13.151367 4.0200936 13.292126 3.9179688 13.445312C3.3326302 14.323321 3 15.166667 3 16 A 1.0001 1.0001 0 0 0 3.4257812 16.832031C3.1601641 17.354756 3.0234375 17.928578 3.0234375 18.5C3.0234375 19.346155 3.2991433 20.205609 3.8964844 20.880859C4.4938254 21.55611 5.4311798 22 6.5117188 22C7.5922576 22 8.5296121 21.55611 9.1269531 20.880859C9.6066741 20.33857 9.8703573 19.677598 9.9589844 19L12 19L14 19L17.064453 19C17.15308 19.677598 17.416763 20.33857 17.896484 20.880859C18.493825 21.55611 19.43118 22 20.511719 22C21.592258 22 22.529612 21.55611 23.126953 20.880859C23.724294 20.205609 24 19.346155 24 18.5C24 17.653845 23.724294 16.794391 23.126953 16.119141C22.782066 15.729271 22.314944 15.431041 21.78125 15.236328L21.691406 15L23 15 A 1.0001 1.0001 0 1 0 23 13L20.941406 13L19.066406 8L20.429688 8C20.745688 8 21 7.7446875 21 7.4296875L21 5.5703125C21 5.2543125 20.745688 5 20.429688 5L18.5 5 z M 2 8L5 8L5 11L2 11L2 8 z M 6.5117188 17C7.0898458 17 7.3969144 17.18111 7.6289062 17.443359C7.8608983 17.705609 8 18.096155 8 18.5C8 18.903845 7.8608982 19.294391 7.6289062 19.556641C7.3969143 19.81889 7.0898458 20 6.5117188 20C5.9335917 20 5.6265232 19.81889 5.3945312 19.556641C5.1625393 19.294391 5.0234375 18.903845 5.0234375 18.5C5.0234375 18.096155 5.1625393 17.705609 5.3945312 17.443359C5.6265232 17.18111 5.9335917 17 6.5117188 17 z M 20.511719 17C21.089846 17 21.396914 17.18111 21.628906 17.443359C21.860898 17.705609 22 18.096155 22 18.5C22 18.903845 21.860898 19.294391 21.628906 19.556641C21.396914 19.81889 21.089846 20 20.511719 20C19.933592 20 19.626523 19.81889 19.394531 19.556641C19.162539 19.294391 19.023438 18.903845 19.023438 18.5C19.023438 18.096155 19.162539 17.705609 19.394531 17.443359C19.626523 17.18111 19.933592 17 20.511719 17 z" />
</svg>