<?xml version="1.0" encoding="utf-8"?>
<svg xmlns="http://www.w3.org/2000/svg" viewBox="0 0 24 24" width="96" height="96">
  <path d="M3 3C2.448 3 2 3.448 2 4L2 6C2 6.552 2.448 7 3 7L21 7C21.552 7 22 6.552 22 6L22 4C22 3.448 21.552 3 21 3L3 3 z M 4 9C3.448 9 3 9.448 3 10L3 19C3 20.105 3.895 21 5 21L19 21C20.105 21 21 20.105 21 19L21 10C21 9.448 20.552 9 20 9L4 9 z M 15 16L17 16C17.552 16 18 16.448 18 17C18 17.552 17.552 18 17 18L15 18C14.448 18 14 17.552 14 17C14 16.448 14.448 16 15 16 z" />
</svg>