<?xml version="1.0" encoding="utf-8"?>
<svg xmlns="http://www.w3.org/2000/svg" viewBox="0 0 24 24" width="96" height="96">
  <path d="M3.7421875 2L2.0019531 2.0136719 A 1.0001 1.0001 0 1 0 2.015625 4.0136719L3.0859375 4.0058594L6.3789062 11.908203L5.1816406 13.822266C4.3432894 15.16101 5.3626785 17 6.9414062 17L18 17 A 1.0001 1.0001 0 1 0 18 15L6.9414062 15C6.8301342 15 6.8173041 14.978071 6.8769531 14.882812 A 1.0001 1.0001 0 0 0 6.8789062 14.882812L8.0546875 13L15.521484 13C16.247484 13 16.917531 12.605703 17.269531 11.970703L20.871094 5.484375C21.242094 4.818375 20.760047 4 19.998047 4L5.25 4L4.6738281 2.6152344 A 1.0001 1.0001 0 0 0 3.7421875 2 z M 7 18 A 2 2 0 0 0 5 20 A 2 2 0 0 0 7 22 A 2 2 0 0 0 9 20 A 2 2 0 0 0 7 18 z M 17 18 A 2 2 0 0 0 15 20 A 2 2 0 0 0 17 22 A 2 2 0 0 0 19 20 A 2 2 0 0 0 17 18 z" />
</svg>