<?xml version="1.0" encoding="utf-8"?>
<svg xmlns="http://www.w3.org/2000/svg" viewBox="0 0 24 24" width="96" height="96">
  <path d="M12 16.026L7.675 18.637 8.823 13.717 5 10.405 10.029 9.978 12 5.327 13.971 9.978 19 10.405 15.177 13.717 16.325 18.637z" opacity=".3" />
  <path d="M23.053,9.002l-7.947-0.674L12,1L8.894,8.328L0.947,9.002l6.035,5.228L5.169,22L12,17.877L18.831,22l-1.813-7.77L23.053,9.002z M12,15.541l-3.806,2.297l1.01-4.33L5.84,10.594l4.425-0.375L12,6.125l1.735,4.094l4.425,0.375l-3.364,2.915l1.01,4.33L12,15.541z" />
</svg>