<?xml version="1.0" encoding="utf-8"?>
<svg xmlns="http://www.w3.org/2000/svg" viewBox="0 0 24 24" width="96" height="96">
  <path d="M12 2C7.582 2 4 5.582 4 10L4 11L4 11.902344C3.426291 12.449411 3 13.153146 3 14C3 15.241968 3.8575508 16.162904 4.9433594 16.613281C6.2443933 19.723094 8.8502365 22 12 22C15.149764 22 17.755607 19.723094 19.056641 16.613281C20.142449 16.162904 21 15.241968 21 14C21 13.153146 20.573709 12.449411 20 11.902344L20 11L20 10C20 5.582 16.418 2 12 2 z M 7 10L17 10C17.552 10 18 10.448 18 11L18 12L18 12.271484 A 1.0001 1.0001 0 0 0 18.501953 13.138672C18.805591 13.312973 19 13.615008 19 14C19 14.515121 18.631169 14.912712 18.138672 14.980469 A 1.0001 1.0001 0 0 0 17.339844 15.613281C16.309043 18.299502 14.258448 20 12 20C9.7415517 20 7.6909574 18.299502 6.6601562 15.613281 A 1.0001 1.0001 0 0 0 5.8613281 14.980469C5.3688308 14.912712 5 14.515121 5 14C5 13.615008 5.1944088 13.312973 5.4980469 13.138672 A 1.0001 1.0001 0 0 0 6 12.271484L6 12L6 11C6 10.448 6.448 10 7 10 z" />
</svg>